{"title":"Impractical Jokers S04E09 HDTV x264-WRCR","uid":11793504,"size":181147107,"categoryP":"video","categoryS":"tv_shows","magnet":"?xt=urn:btih:fc081d85b18adb5e81a1bbd82f65b36c38463ca4&amp;dn=Impractical+Jokers+S04E09+HDTV+x264-WRCR&amp;tr=udp%3A%2F%2Ftracker.openbittorrent.com%3A80&amp;tr=udp%3A%2F%2Fopen.demonii.com%3A1337&amp;tr=udp%3A%2F%2Ftracker.coppersurfer.tk%3A6969&amp;tr=udp%3A%2F%2Fexodus.desync.com%3A6969","seeders":1,"leechers":0,"uploader":"TvTeam","files":4,"time":1428039572,"description":" &lt;a href=&quot;https://www.torrenting.com&quot; rel=&quot;nofollow&quot; target=&quot;_NEW&quot;&gt;https://www.torrenting.com&lt;/a&gt;\n\nSign up is OPEN - for time being. Come and have fun.\n------------------------------------------------------------------------\n ^_^General\nComplete name                            : Impractical Jokers S04E09 HDTV x264-WRCR.mp4\nFormat                                   : MPEG-4\nFormat profile                           : Base Media / Version 2\nCodec ID                                 : mp42\nFile size                                : 169 MiB\nDuration                                 : 20mn 51s\nOverall bit rate mode                    : Variable\nOverall bit rate                         : 1 131 Kbps\nWriting application                      : HandBrake 0.9.8 2012071700\n\nVideo\nID                                       : 1\nFormat                                   : AVC\nFormat/Info                              : Advanced Video Codec\nFormat profile                           : &lt;a class=&quot;__cf_email__&quot; href=&quot;/cdn-cgi/l/email-protection&quot; data-cfemail=&quot;4f022e26210f037c617f&quot;&gt;[email&amp;#160;protected]&lt;/a&gt;&lt;script cf-hash='f9e31' type=&quot;text/javascript&quot;&gt;\n/* &lt;![CDATA[ */!function(){try{var t=&quot;currentScript&quot;in document?document.currentScript:function(){for(var t=document.getElementsByTagName(&quot;script&quot;),e=t.length;e--;)if(t[e].getAttribute(&quot;cf-hash&quot;))return t[e]}();if(t&amp;&amp;t.previousSibling){var e,r,n,i,c=t.previousSibling,a=c.getAttribute(&quot;data-cfemail&quot;);if(a){for(e=&quot;&quot;,r=parseInt(a.substr(0,2),16),n=2;a.length-n;n+=2)i=parseInt(a.substr(n,2),16)^r,e+=String.fromCharCode(i);e=document.createTextNode(e),c.parentNode.replaceChild(e,c)}}}catch(u){}}();/* ]]&gt; */&lt;/script&gt;\nFormat settings, CABAC                   : Yes\nFormat settings, ReFrames                : 4 frames\nCodec ID                                 : avc1\nCodec ID/Info                            : Advanced Video Coding\nDuration                                 : 20mn 50s\nBit rate                                 : 1 000 Kbps\nWidth                                    : 720 pixels\nHeight                                   : 400 pixels\nDisplay aspect ratio                     : 16:9\nFrame rate mode                          : Constant\nFrame rate                               : 29.970 fps\nColor space                              : YUV\nChroma subsampling                       : 4:2:0\nBit depth                                : 8 bits\nScan type                                : Progressive\nBits/(Pixel*Frame)                       : 0.116\nStream size                              : 149 MiB (88%)\nWriting library                          : x264 core 120\n\nAudio\nID                                       : 2\nFormat                                   : AAC\nFormat/Info                              : Advanced Audio Codec\nFormat profile                           : LC\nCodec ID                                 : 40\nDuration                                 : 20mn 51s\nBit rate mode                            : Variable\nBit rate                                 : 128 Kbps\nMaximum bit rate                         : 167 Kbps\nChannel(s)                               : 2 channels\nChannel positions                        : Front: L R\nSampling rate                            : 48.0 KHz\nCompression mode                         : Lossy\nStream size                              : 19.1 MiB (11%)","torrent":{"xt":"urn:btih:fc081d85b18adb5e81a1bbd82f65b36c38463ca4","amp;dn":"Impractical+Jokers+S04E09+HDTV+x264-WRCR","amp;tr":["udp%3A%2F%2Ftracker.openbittorrent.com%3A80","udp%3A%2F%2Fopen.demonii.com%3A1337","udp%3A%2F%2Ftracker.coppersurfer.tk%3A6969","udp%3A%2F%2Fexodus.desync.com%3A6969"],"infoHash":"fc081d85b18adb5e81a1bbd82f65b36c38463ca4","infoHashBuffer":{"type":"Buffer","data":[252,8,29,133,177,138,219,94,129,161,187,216,47,101,179,108,56,70,60,164]},"announce":[],"urlList":[]}}